# xmcd
#
# Track frame offsets:
#	150
#	24300
#	42565
#	60146
#	75469
#	91276
#	110631
#	127413
#	146524
#	168448
#	186403
#	199863
#	216209
#	230377
#	251025
#	268219
#	283460
#	301425
#	331674
#
# Disc length: 4795 seconds
#
# Revision: 1
# Processed by: cddbd v1.5PL3 Copyright (c) Steve Scherf et al.
# Submitted via: audiograbber 1.82.02
#
DISCID=1f12b913
DTITLE=Various Artist - CMC Country 2003 Disc 2
DYEAR=1900
DGENRE=Country
TTITLE0=Keith Urban - Somebody Like You
TTITLE1=Alan Jackson - Drive (For Daddy Gene)
TTITLE2=Alison Krauss and Union Station - New Favorite
TTITLE3=Toby Keith featuring Willie Nelson - Beer For My Horses
TTITLE4=Kenny Chesney - No Shoes, No Shirt, No Problems
TTITLE5=Jennifer Hanson - Beautiful Goodbye
TTITLE6=Chris Cagle - What A Beautiful Day
TTITLE7=Mindy Smith - Jolene
TTITLE8=Montgomery Gentry - Hell Yeah
TTITLE9=Terri Clark - Three Mississippi
TTITLE10=Tracy Bird and Andy Griggs, Blake Shelton and Montgomery Gentry - The 
TTITLE10=Truth About Men
TTITLE11=Patti Loveless - Lovin All Night
TTITLE12=Dwight Yoakam - The Back Of Your Hand
TTITLE13=Kathleen Edwards - Six O'Clock News
TTITLE14=Buddy Jewell - Help Pour Out The Rain (Lacey's Song)
TTITLE15=Darryl Worley - Tennessee River Run
TTITLE16=Kevin Welch and The Danes - Millionare
TTITLE17=Jessica Andrews - Good Time
TTITLE18=Data - Data Track
EXTD=
EXTT0=
EXTT1=
EXTT2=
EXTT3=
EXTT4=
EXTT5=
EXTT6=
EXTT7=
EXTT8=
EXTT9=
EXTT10=
EXTT11=
EXTT12=
EXTT13=
EXTT14=
EXTT15=
EXTT16=
EXTT17=
EXTT18=
PLAYORDER=
